<svg width="187" height="107" viewBox="0 0 187 107" fill="none" xmlns="http://www.w3.org/2000/svg">
<path fill-rule="evenodd" clip-rule="evenodd" d="M156.964 0.598145L81 29.0001L110.067 106.744L186.032 78.3419L156.964 0.598145ZM111.023 38.091L120.568 73.0001H124.932L132.636 45.1819H132.909L140.614 73.0001H144.977L154.523 38.091H150.227L142.932 66.5228H142.591L135.159 38.091H130.386L122.955 66.5228H122.614L115.318 38.091H111.023Z" fill="#C1C1C1"/>
<path d="M58.9547 59.3637L53.3636 43.6137H53.0909L47.4998 59.3637H58.9547Z" fill="#C1C1C1"/>
<path fill-rule="evenodd" clip-rule="evenodd" d="M75.9644 0.598145L0 29.0001L29.0672 106.744L105.032 78.3419L75.9644 0.598145ZM38.2273 73.0001H42.6591L46.1686 63.1137H60.2859L63.7955 73.0001H68.2273L55.4091 38.091H51.0455L38.2273 73.0001Z" fill="#C1C1C1"/>
</svg>
