<svg width="187" height="107" viewBox="0 0 187 107" fill="none" xmlns="http://www.w3.org/2000/svg">
<path fill-rule="evenodd" clip-rule="evenodd" d="M156.964 0.598022L81 29L110.067 106.744L186.032 78.3418L156.964 0.598022ZM138.83 42.7954C140.284 43.7499 141.114 45.0908 141.318 46.8181H145.409C145.352 45.0568 144.807 43.4829 143.773 42.0965C142.75 40.7102 141.364 39.6193 139.614 38.8238C137.864 38.017 135.864 37.6136 133.614 37.6136C131.386 37.6136 129.369 38.0227 127.562 38.8408C125.767 39.6477 124.335 40.784 123.267 42.2499C122.21 43.7045 121.682 45.409 121.682 47.3636C121.682 49.7158 122.477 51.6193 124.068 53.0738C125.659 54.5283 127.818 55.6477 130.545 56.4318L134.841 57.659C136.068 57.9999 137.21 58.3977 138.267 58.8522C139.324 59.3068 140.176 59.8977 140.824 60.6249C141.472 61.3522 141.795 62.2954 141.795 63.4545C141.795 64.7272 141.42 65.8409 140.67 66.7954C139.92 67.7386 138.903 68.4772 137.619 69.0113C136.335 69.534 134.886 69.7954 133.273 69.7954C131.886 69.7954 130.591 69.5909 129.386 69.1818C128.193 68.7613 127.205 68.1249 126.42 67.2727C125.648 66.409 125.205 65.3181 125.091 63.9999H120.727C120.864 65.909 121.449 67.5852 122.483 69.0284C123.528 70.4715 124.96 71.5965 126.778 72.4034C128.608 73.2102 130.773 73.6136 133.273 73.6136C135.955 73.6136 138.233 73.1647 140.108 72.267C141.994 71.3693 143.426 70.159 144.403 68.6363C145.392 67.1136 145.886 65.409 145.886 63.5227C145.886 61.8863 145.551 60.5056 144.881 59.3806C144.21 58.2556 143.358 57.3352 142.324 56.6193C141.301 55.892 140.227 55.3181 139.102 54.8977C137.989 54.4772 136.977 54.1477 136.068 53.909L132.523 52.9545C131.875 52.784 131.165 52.5624 130.392 52.2897C129.619 52.0056 128.881 51.6477 128.176 51.2158C127.472 50.7727 126.892 50.2215 126.438 49.5624C125.994 48.892 125.773 48.0908 125.773 47.159C125.773 46.0454 126.091 45.0511 126.727 44.1761C127.375 43.3011 128.273 42.6136 129.42 42.1136C130.58 41.6136 131.932 41.3636 133.477 41.3636C135.591 41.3636 137.375 41.8408 138.83 42.7954Z" fill="#C1C1C1"/>
<path d="M53.8409 69.2499H45.4545V57.1136H54.0455C55.5682 57.1136 56.8864 57.4204 58 58.034C59.1136 58.6363 59.9716 59.4431 60.5739 60.4545C61.1761 61.4545 61.4773 62.5454 61.4773 63.7272C61.4773 65.2613 60.892 66.5681 59.7216 67.6477C58.5625 68.7159 56.6023 69.2499 53.8409 69.2499Z" fill="#C1C1C1"/>
<path d="M53.2955 53.4318H45.4545V41.8408H53.4318C55.75 41.8408 57.4432 42.3806 58.5114 43.4602C59.5795 44.5283 60.1136 45.8295 60.1136 47.3636C60.1136 48.5908 59.8068 49.659 59.1932 50.5681C58.5909 51.4772 57.7727 52.1818 56.7386 52.6818C55.7159 53.1818 54.5682 53.4318 53.2955 53.4318Z" fill="#C1C1C1"/>
<path fill-rule="evenodd" clip-rule="evenodd" d="M75.9644 0.598022L0 29L29.0672 106.744L105.032 78.3418L75.9644 0.598022ZM41.2273 38.0908V72.9999H53.8409C56.5909 72.9999 58.8239 72.5909 60.5398 71.7727C62.2557 70.9545 63.5114 69.8465 64.3068 68.4488C65.1023 67.0511 65.5 65.4772 65.5 63.7272C65.5 61.8863 65.1364 60.3295 64.4091 59.0568C63.6818 57.784 62.7784 56.8068 61.6989 56.1249C60.6193 55.4431 59.5455 55.0681 58.4773 54.9999V54.659C59.4773 54.3863 60.4034 53.9658 61.2557 53.3977C62.1193 52.8295 62.8125 52.0568 63.3352 51.0795C63.8693 50.1022 64.1364 48.8636 64.1364 47.3636C64.1364 45.659 63.75 44.1079 62.9773 42.7102C62.2045 41.3011 61.0284 40.1818 59.4489 39.3522C57.8693 38.5113 55.8636 38.0908 53.4318 38.0908H41.2273Z" fill="#C1C1C1"/>
</svg>
