<svg width="187" height="107" viewBox="0 0 187 107" fill="none" xmlns="http://www.w3.org/2000/svg">
<path fill-rule="evenodd" clip-rule="evenodd" d="M156.964 0.598022L81 29L110.067 106.744L186.032 78.3418L156.964 0.598022ZM122.227 38.0909V73H126.455V61.6818L130.818 56.7727L142.955 73H148.068L133.409 53.8409L148.068 38.0909H142.545L126.864 55.4091H126.455V38.0909H122.227Z" fill="#C1C1C1"/>
<path fill-rule="evenodd" clip-rule="evenodd" d="M75.9644 0.598022L0 29L29.0672 106.744L105.032 78.3418L75.9644 0.598022ZM59.8182 38.0909H55.5909V63.0454C55.5909 64.4886 55.3636 65.7102 54.9091 66.7102C54.4659 67.6988 53.8182 68.4488 52.9659 68.9602C52.1136 69.4716 51.0795 69.7272 49.8636 69.7272C48.7614 69.7272 47.7784 69.5227 46.9148 69.1136C46.0511 68.7045 45.3693 68.1363 44.8693 67.4091C44.3807 66.6704 44.1364 65.8068 44.1364 64.8182H39.9773C39.9773 66.6022 40.4034 68.142 41.2557 69.4375C42.108 70.7329 43.2784 71.7329 44.767 72.4375C46.2557 73.1307 47.9545 73.4772 49.8636 73.4772C51.8864 73.4772 53.642 73.0738 55.1307 72.267C56.6193 71.4602 57.7727 70.2784 58.5909 68.7216C59.4091 67.1647 59.8182 65.2727 59.8182 63.0454V38.0909Z" fill="#C1C1C1"/>
</svg>
