<svg width="187" height="107" viewBox="0 0 187 107" fill="none" xmlns="http://www.w3.org/2000/svg">
<path fill-rule="evenodd" clip-rule="evenodd" d="M156.964 0.598022L81 29L110.067 106.744L186.032 78.3418L156.964 0.598022ZM143.091 49H147.318C147 47.2045 146.42 45.6079 145.58 44.2102C144.739 42.8011 143.693 41.6079 142.443 40.6306C141.193 39.642 139.79 38.892 138.233 38.3806C136.688 37.8693 135.034 37.6136 133.273 37.6136C130.295 37.6136 127.648 38.3409 125.33 39.7954C123.011 41.25 121.188 43.3182 119.858 46C118.528 48.6818 117.864 51.8636 117.864 55.5454C117.864 59.2272 118.528 62.4091 119.858 65.0909C121.188 67.7727 123.011 69.8409 125.33 71.2954C127.648 72.75 130.295 73.4772 133.273 73.4772C135.034 73.4772 136.688 73.2216 138.233 72.7102C139.79 72.1988 141.193 71.4545 142.443 70.4772C143.693 69.4886 144.739 68.2897 145.58 66.8807C146.42 65.4716 147 63.875 147.318 62.0909H143.091C142.841 63.2954 142.403 64.3636 141.778 65.2954C141.165 66.2159 140.415 66.9943 139.528 67.6307C138.653 68.2557 137.682 68.7272 136.614 69.0454C135.545 69.3636 134.432 69.5227 133.273 69.5227C131.159 69.5227 129.244 68.9886 127.528 67.9204C125.824 66.8522 124.466 65.2784 123.455 63.1988C122.455 61.1193 121.955 58.5681 121.955 55.5454C121.955 52.5227 122.455 49.9716 123.455 47.892C124.466 45.8125 125.824 44.2386 127.528 43.1704C129.244 42.1022 131.159 41.5681 133.273 41.5681C134.432 41.5681 135.545 41.7272 136.614 42.0454C137.682 42.3636 138.653 42.8409 139.528 43.4772C140.415 44.1022 141.165 44.875 141.778 45.7954C142.403 46.7159 142.841 47.7841 143.091 49Z" fill="#C1C1C1"/>
<path fill-rule="evenodd" clip-rule="evenodd" d="M75.9644 0.598022L0 29L29.0672 106.744L105.032 78.3418L75.9644 0.598022ZM41.2273 38.0909V73H45.4545V61.6818L49.8182 56.7727L61.9545 73H67.0682L52.4091 53.8409L67.0682 38.0909H61.5455L45.8636 55.4091H45.4545V38.0909H41.2273Z" fill="#C1C1C1"/>
</svg>
