<svg width="187" height="107" viewBox="0 0 187 107" fill="none" xmlns="http://www.w3.org/2000/svg">
<path d="M139.955 59.3636L134.364 43.6136H134.091L128.5 59.3636H139.955Z" fill="#C1C1C1"/>
<path fill-rule="evenodd" clip-rule="evenodd" d="M156.964 0.598022L81 29L110.067 106.744L186.032 78.3418L156.964 0.598022ZM119.227 73H123.659L127.169 63.1136H141.286L144.795 73H149.227L136.409 38.0909H132.045L119.227 73Z" fill="#C1C1C1"/>
<path fill-rule="evenodd" clip-rule="evenodd" d="M75.9644 0.598022L0 29L29.0672 106.744L105.032 78.3418L75.9644 0.598022ZM41.2727 38.0909H36.2273V73H40.1818V46.4772H40.5227L51.4318 73H55.25L66.1591 46.4772H66.5V73H70.4545V38.0909H65.4091L53.5455 67.0682H53.1364L41.2727 38.0909Z" fill="#C1C1C1"/>
</svg>
