<svg width="187" height="107" viewBox="0 0 187 107" fill="none" xmlns="http://www.w3.org/2000/svg">
<path fill-rule="evenodd" clip-rule="evenodd" d="M156.964 0.598022L81 29L110.067 106.744L186.032 78.3418L156.964 0.598022ZM122.273 38.0908H117.227V72.9999H121.182V46.4772H121.523L132.432 72.9999H136.25L147.159 46.4772H147.5V72.9999H151.455V38.0908H146.409L134.545 67.0681H134.136L122.273 38.0908Z" fill="#C1C1C1"/>
<path fill-rule="evenodd" clip-rule="evenodd" d="M75.9644 0.598022L0 29L29.0672 106.744L105.032 78.3418L75.9644 0.598022ZM41.2727 38.0908H36.2273V72.9999H40.1818V46.4772H40.5227L51.4318 72.9999H55.25L66.1591 46.4772H66.5V72.9999H70.4545V38.0908H65.4091L53.5455 67.0681H53.1364L41.2727 38.0908Z" fill="#C1C1C1"/>
</svg>
