<svg width="187" height="107" viewBox="0 0 187 107" fill="none" xmlns="http://www.w3.org/2000/svg">
<path d="M139.955 59.3636L134.364 43.6136H134.091L128.5 59.3636H139.955Z" fill="#C1C1C1"/>
<path fill-rule="evenodd" clip-rule="evenodd" d="M156.964 0.598022L81 29L110.067 106.744L186.032 78.3418L156.964 0.598022ZM119.227 73H123.659L127.169 63.1136H141.286L144.795 73H149.227L136.409 38.0909H132.045L119.227 73Z" fill="#C1C1C1"/>
<path fill-rule="evenodd" clip-rule="evenodd" d="M75.9644 0.598022L0 29L29.0672 106.744L105.032 78.3418L75.9644 0.598022ZM65.9091 73V38.0909H61.75V65.5682H61.4091L42.3182 38.0909H38.2273V73H42.4545V45.5909H42.7955L61.8182 73H65.9091Z" fill="#C1C1C1"/>
</svg>
