<svg width="187" height="107" viewBox="0 0 187 107" fill="none" xmlns="http://www.w3.org/2000/svg">
<path d="M134.841 69.25H126.455V57.1136H135.045C136.568 57.1136 137.886 57.4204 139 58.0341C140.114 58.6363 140.972 59.4431 141.574 60.4545C142.176 61.4545 142.477 62.5454 142.477 63.7272C142.477 65.2613 141.892 66.5681 140.722 67.6477C139.562 68.7159 137.602 69.25 134.841 69.25Z" fill="#C1C1C1"/>
<path d="M134.295 53.4318H126.455V41.8409H134.432C136.75 41.8409 138.443 42.3806 139.511 43.4602C140.58 44.5284 141.114 45.8295 141.114 47.3636C141.114 48.5909 140.807 49.659 140.193 50.5681C139.591 51.4772 138.773 52.1818 137.739 52.6818C136.716 53.1818 135.568 53.4318 134.295 53.4318Z" fill="#C1C1C1"/>
<path fill-rule="evenodd" clip-rule="evenodd" d="M156.964 0.598022L81 29L110.067 106.744L186.032 78.3418L156.964 0.598022ZM122.227 38.0909V73H134.841C137.591 73 139.824 72.5909 141.54 71.7727C143.256 70.9545 144.511 69.8465 145.307 68.4488C146.102 67.0511 146.5 65.4772 146.5 63.7272C146.5 61.8863 146.136 60.3295 145.409 59.0568C144.682 57.7841 143.778 56.8068 142.699 56.125C141.619 55.4431 140.545 55.0681 139.477 55V54.6591C140.477 54.3863 141.403 53.9659 142.256 53.3977C143.119 52.8295 143.812 52.0568 144.335 51.0795C144.869 50.1022 145.136 48.8636 145.136 47.3636C145.136 45.659 144.75 44.1079 143.977 42.7102C143.205 41.3011 142.028 40.1818 140.449 39.3522C138.869 38.5113 136.864 38.0909 134.432 38.0909H122.227Z" fill="#C1C1C1"/>
<path fill-rule="evenodd" clip-rule="evenodd" d="M75.9644 0.598022L0 29L29.0672 106.744L105.032 78.3418L75.9644 0.598022ZM58.8295 42.7954C60.2841 43.75 61.1136 45.0909 61.3182 46.8181H65.4091C65.3523 45.0568 64.8068 43.4829 63.7727 42.0966C62.75 40.7102 61.3636 39.6193 59.6136 38.8238C57.8636 38.017 55.8636 37.6136 53.6136 37.6136C51.3864 37.6136 49.3693 38.0227 47.5625 38.8409C45.767 39.6477 44.3352 40.7841 43.267 42.25C42.2102 43.7045 41.6818 45.4091 41.6818 47.3636C41.6818 49.7159 42.4773 51.6193 44.0682 53.0738C45.6591 54.5284 47.8182 55.6477 50.5455 56.4318L54.8409 57.6591C56.0682 58 57.2102 58.3977 58.267 58.8522C59.3239 59.3068 60.1761 59.8977 60.8239 60.625C61.4716 61.3522 61.7955 62.2954 61.7955 63.4545C61.7955 64.7272 61.4205 65.8409 60.6705 66.7954C59.9205 67.7386 58.9034 68.4772 57.6193 69.0113C56.3352 69.5341 54.8864 69.7954 53.2727 69.7954C51.8864 69.7954 50.5909 69.5909 49.3864 69.1818C48.1932 68.7613 47.2045 68.125 46.4205 67.2727C45.6477 66.4091 45.2045 65.3182 45.0909 64H40.7273C40.8636 65.9091 41.4489 67.5852 42.483 69.0284C43.5284 70.4716 44.9602 71.5966 46.7784 72.4034C48.608 73.2102 50.7727 73.6136 53.2727 73.6136C55.9545 73.6136 58.233 73.1647 60.108 72.267C61.9943 71.3693 63.4261 70.1591 64.4034 68.6363C65.392 67.1136 65.8864 65.4091 65.8864 63.5227C65.8864 61.8863 65.5511 60.5056 64.8807 59.3806C64.2102 58.2556 63.358 57.3352 62.3239 56.6193C61.3011 55.892 60.2273 55.3181 59.1023 54.8977C57.9886 54.4772 56.9773 54.1477 56.0682 53.9091L52.5227 52.9545C51.875 52.7841 51.1648 52.5625 50.392 52.2897C49.6193 52.0056 48.8807 51.6477 48.1761 51.2159C47.4716 50.7727 46.892 50.2216 46.4375 49.5625C45.9943 48.892 45.7727 48.0909 45.7727 47.1591C45.7727 46.0454 46.0909 45.0511 46.7273 44.1761C47.375 43.3011 48.2727 42.6136 49.4205 42.1136C50.5795 41.6136 51.9318 41.3636 53.4773 41.3636C55.5909 41.3636 57.375 41.8409 58.8295 42.7954Z" fill="#C1C1C1"/>
</svg>
